<?xml version="1.0" encoding="UTF-8"?>
<!DOCTYPE svg PUBLIC "-//W3C//DTD SVG 1.1//EN" "http://www.w3.org/Graphics/SVG/1.1/DTD/svg11.dtd">
<!-- Creator: CorelDRAW 2021.5 -->
<svg xmlns="http://www.w3.org/2000/svg" xml:space="preserve" width="137.5mm" height="38.6948mm" version="1.1" style="shape-rendering:geometricPrecision; text-rendering:geometricPrecision; image-rendering:optimizeQuality; fill-rule:evenodd; clip-rule:evenodd"
viewBox="0 0 20213.49 5688.4"
 xmlns:xlink="http://www.w3.org/1999/xlink"
 xmlns:xodm="http://www.corel.com/coreldraw/odm/2003">
 <defs>
  <style type="text/css">
   <![CDATA[
    .fil1 {fill:#FEFEFE;fill-rule:nonzero}
    .fil0 {fill:#F5B2B6;fill-rule:nonzero}
   ]]>
  </style>
 </defs>
 <g id="Layer_x0020_1">
  <metadata id="CorelCorpID_0Corel-Layer"/>
  <path class="fil0" d="M552.5 3547.82l-552.5 0 0 -2458.33 552.5 0 0 2458.33zm0 -3058.95l-552.5 0 0 -484.21 552.5 0 0 484.21zm1118.99 600.61l31.81 354.64c79.93,-125.72 180.8,-224.26 303.41,-294.88 121.82,-70.62 259.17,-106.32 412.05,-106.32 256.85,0 456.28,77.6 599.07,232.8 143.55,155.2 214.95,397.3 214.95,726.33l0 1545.76 -552.51 0 0 -1541.88c0,-184.68 -38.02,-316.61 -114.84,-394.21 -76.05,-78.37 -192.45,-117.16 -348.42,-117.16 -107.86,0 -204.09,24.05 -288.66,71.39 -85.37,48.12 -155.21,113.3 -209.53,197.11l0 1784.76 -552.5 0 0 -2458.33 505.17 0zm2823.03 -597.51l0 597.51 440.76 0 0 409.72 -440.76 0 0 1357.21c0,101.66 21.73,173.82 65.96,217.28 43.46,42.68 102.43,64.4 174.6,64.4 30.25,0 59.74,-2.32 89.23,-7.76 28.71,-5.42 55.88,-12.41 81.49,-21.73l58.96 404.3c-46.56,25.61 -103.2,45.78 -168.38,59.74 -65.18,14.74 -131.92,21.73 -201.75,21.73 -203.31,0 -362.39,-59.74 -478.02,-178.48 -114.84,-118.72 -172.26,-304.95 -172.26,-559.48l0 -1357.21 -375.57 0 0 -409.72 375.57 0 0 -597.51 550.17 0zm1986.53 3102.4c-348.42,0 -626.23,-114.06 -832.65,-342.2 -207.18,-227.38 -310.39,-520.7 -310.39,-877.64l0 -90.79c0,-357.73 102.43,-654.17 308.07,-890.05 204.87,-235.14 462.48,-352.3 771.33,-350.76 332.13,0 586.65,100.11 762.8,301.08 176.92,200.99 265.38,470.25 265.38,807.8l0 325.15 -1534.9 0 -4.66 11.63c9.32,194.78 66.74,353.86 171.5,478.01 105.54,123.38 251.43,185.46 437.65,185.46 148.99,0 276.26,-17.85 381.79,-54.32 106.3,-36.47 208.73,-89.23 307.29,-157.52l177.7 362.39c-93.11,82.25 -215.72,151.31 -368.59,207.18 -152.87,56.66 -330.57,84.59 -532.33,84.59zm-63.64 -2109.14c-135.79,0 -248.31,54.32 -336,162.96 -87.69,107.87 -142.79,245.22 -163.74,412.06l4.66 11.63 975.42 0 0 -56.64c0,-155.97 -40.35,-284.02 -119.5,-382.56 -79.93,-98.55 -200.21,-147.45 -360.84,-147.45zm2062.58 2062.58l-552.5 0 0 -3547.82 552.5 0 0 3547.82zm1207.44 0l-552.5 0 0 -3547.82 552.5 0 0 3547.82zm1207.44 0l-552.5 0 0 -2458.33 552.5 0 0 2458.33zm0 -3058.95l-552.5 0 0 -484.21 552.5 0 0 484.21zm2951.09 190.9l-1000.25 0 0 2868.04 -552.51 0 0 -2868.04 -1000.23 0 0 -442.31 2552.99 0 0 442.31zm1197.36 2914.6c-348.42,0 -626.23,-114.06 -832.65,-342.2 -207.18,-227.38 -310.39,-520.7 -310.39,-877.64l0 -90.79c0,-357.73 102.43,-654.17 308.07,-890.05 204.87,-235.14 462.48,-352.3 771.33,-350.76 332.13,0 586.65,100.11 762.8,301.08 176.92,200.99 265.38,470.25 265.38,807.8l0 325.15 -1534.9 0 -4.66 11.63c9.32,194.78 66.74,353.86 171.5,478.01 105.54,123.38 251.43,185.46 437.65,185.46 148.99,0 276.26,-17.85 381.79,-54.32 106.3,-36.47 208.73,-89.23 307.29,-157.52l177.7 362.39c-93.11,82.25 -215.72,151.31 -368.59,207.18 -152.87,56.66 -330.57,84.59 -532.33,84.59zm-63.64 -2109.14c-135.79,0 -248.31,54.32 -336,162.96 -87.69,107.87 -142.79,245.22 -163.74,412.06l4.66 11.63 975.42 0 0 -56.64c0,-155.97 -40.35,-284.02 -119.5,-382.56 -79.93,-98.55 -200.21,-147.45 -360.84,-147.45zm2855.64 1392.9c0,-84.59 -36.47,-155.2 -108.64,-211.07 -72.94,-55.86 -208.73,-104.76 -407.39,-147.43 -294.1,-62.08 -516.04,-150.55 -667.35,-264.61 -150.55,-114.08 -225.82,-270.05 -225.82,-467.14 0,-205.65 86.91,-381.79 261.51,-526.9 173.82,-145.11 403.52,-218.06 689.08,-218.06 299.53,0 537.75,73.72 714.69,221.94 176.14,147.43 260.73,330.57 253.75,548.63l-4.66 13.97 -530 0c0,-101.66 -38.8,-188.57 -115.62,-261.51 -77.6,-72.17 -183.91,-108.64 -318.15,-108.64 -133.47,0 -235.12,29.49 -304.97,89.23 -69.84,59.76 -104.76,132.7 -104.76,218.83 0,86.13 33.37,154.42 99.32,204.85 65.96,51.22 199.43,95.45 401.2,135.03 308.85,63.64 538.53,153.65 687.52,269.27 148.99,116.4 223.48,273.92 223.48,474.13 0,221.16 -90.79,401.18 -273.92,538.53 -182.36,138.13 -422.91,207.19 -721.67,207.19 -319.71,0 -571.9,-81.47 -756.58,-245.21 -185.46,-163.74 -273.15,-352.3 -263.83,-564.14l4.65 -13.98 513.72 0c6.2,142.79 57.42,245.99 154.42,311.18 97,65.18 214.95,97.77 354.62,97.77 142.79,0 252.2,-27.17 329.79,-81.49 76.83,-54.32 115.62,-128.04 115.62,-220.38zm1725.8 -2386.17l0 597.51 440.76 0 0 409.72 -440.76 0 0 1357.21c0,101.66 21.73,173.82 65.96,217.28 43.46,42.68 102.43,64.4 174.6,64.4 30.25,0 59.74,-2.32 89.23,-7.76 28.71,-5.42 55.88,-12.41 81.49,-21.73l58.96 404.3c-46.56,25.61 -103.2,45.78 -168.38,59.74 -65.18,14.74 -131.92,21.73 -201.75,21.73 -203.31,0 -362.39,-59.74 -478.02,-178.48 -114.84,-118.72 -172.26,-304.95 -172.26,-559.48l0 -1357.21 -375.57 0 0 -409.72 375.57 0 0 -597.51 550.17 0z"/>
  <path class="fil1" d="M359.46 5189.01l-103.27 0 0 484.15 -150.98 0 0 -1082.48 150.98 0 0 476.54 89.82 0 286.24 -476.54 179.91 0 -340.53 513.83 366.66 568.65 -184.48 0 -294.35 -484.15zm1890.76 211.63l-345.1 0 -78.66 272.52 -153.25 0 333.16 -1082.48 145.65 0 330.13 1082.48 -153.27 0 -78.66 -272.52zm-310.08 -120.28l275.83 0 -135.25 -473.24 -4.57 0 -136.01 473.24zm1967.38 120.28l-345.1 0 -78.66 272.52 -153.25 0 333.16 -1082.48 145.65 0 330.13 1082.48 -153.27 0 -78.66 -272.52zm-310.08 -120.28l275.83 0 -135.25 -473.24 -4.57 0 -136.01 473.24zm1665.42 -689.68l252.72 883.29 4.57 0 253.5 -883.29 194.62 0 0 1082.48 -149.46 0 0 -415.65 13.45 -416.4 -4.31 -0.76 -260.35 832.81 -99.46 0 -259.58 -832.04 -4.32 0.76 13.97 415.63 0 415.65 -149.46 0 0 -1082.48 194.12 0zm2005.44 525.75l4.32 0 221.52 -525.75 167.22 0 -318.21 692.98 0 389.51 -149.96 0 0 -399.15 -314.65 -683.33 168.75 0 221.01 525.75zm1750.17 284.21l-345.1 0 -78.66 272.52 -153.25 0 333.16 -1082.48 145.65 0 330.13 1082.48 -153.27 0 -78.66 -272.52zm-310.08 -120.28l275.83 0 -135.25 -473.24 -4.57 0 -136.01 473.24zm1967.38 120.28l-345.1 0 -78.66 272.52 -153.25 0 333.16 -1082.48 145.65 0 330.13 1082.48 -153.27 0 -78.66 -272.52zm-310.08 -120.28l275.83 0 -135.25 -473.24 -4.57 0 -136.01 473.24zm1475.11 392.8l0 -1082.48 301.95 0c102.01,0 181.69,24.36 238.78,72.81 57.35,48.47 86.01,121.3 86.01,218.48 0,51.51 -12.94,96.94 -39.07,136.26 -26.14,39.34 -62.17,68.27 -108.09,86.53 58.36,12.95 103.27,43.65 134.75,91.86 31.71,48.47 47.44,105.05 47.44,170.01 0,99.71 -28.15,175.58 -84.48,228.11 -56.33,52.28 -133.98,78.41 -232.95,78.41l-344.33 0zm150.98 -505.47l0 391.29 193.36 0c53.29,0 94.64,-16.49 123.57,-49.48 29.18,-33.25 43.65,-80.44 43.65,-142.11 0,-61.14 -12.44,-109.61 -37.3,-145.64 -24.62,-36.03 -62.93,-54.05 -114.44,-54.05l-208.84 0zm0 -108.09l165.71 0c49.47,0 88.56,-14.97 116.72,-45.18 28.17,-30.2 42.37,-73.58 42.37,-130.42 0,-59.63 -14.72,-104.54 -44.15,-134.23 -29.45,-29.95 -72.83,-44.91 -129.67,-44.91l-150.98 0 0 354.74zm4628.51 341.04l-345.1 0 -78.66 272.52 -153.25 0 333.16 -1082.48 145.65 0 330.13 1082.48 -153.27 0 -78.66 -272.52zm-310.08 -120.28l275.83 0 -135.25 -473.24 -4.57 0 -136.01 473.24zm2190.93 392.8l-149.96 0 -410.56 -805.14 -4.32 1.51 0 803.63 -150.98 0 0 -1082.48 150.98 0 410.31 802.85 4.57 -1.26 0 -801.58 149.96 0 0 1082.48zm1712.36 -392.04c0,128.4 -33.25,228.37 -99.73,299.92 -66.23,71.56 -155.3,107.34 -266.68,107.34 -110.12,0 -197.68,-35.78 -262.63,-107.34 -64.71,-71.55 -97.19,-171.53 -97.19,-299.92l0 -297.14c0,-127.63 32.47,-227.86 97.69,-300.19 65.21,-72.31 152.5,-108.34 262.13,-108.34 110.89,0 199.69,36.03 266.44,108.34 66.73,72.33 99.98,172.56 99.98,300.19l0 297.14zm-150.23 -299.42c0,-94.14 -18.77,-165.44 -56.33,-214.42 -37.81,-48.72 -91.09,-73.08 -159.86,-73.08 -68.01,0 -120.03,24.36 -156.31,73.08 -36.03,48.98 -54.3,120.28 -54.3,214.42l0 299.67c0,95.16 18.27,167.22 54.82,216.19 36.28,48.98 88.29,73.59 155.8,73.59 69.27,0 122.56,-24.36 160.11,-73.08 37.31,-48.97 56.08,-121.05 56.08,-216.7l0 -299.67zm-5581.39 691.46l0 -1082.48 301.95 0c102.01,0 181.69,24.36 238.78,72.81 57.35,48.47 86.01,121.3 86.01,218.48 0,51.51 -12.94,96.94 -39.07,136.26 -26.14,39.34 -62.17,68.27 -108.09,86.53 58.36,12.95 103.27,43.65 134.75,91.86 31.71,48.47 47.44,105.05 47.44,170.01 0,99.71 -28.15,175.58 -84.48,228.11 -56.33,52.28 -133.98,78.41 -232.95,78.41l-344.33 0zm150.98 -505.47l0 391.29 193.36 0c53.29,0 94.64,-16.49 123.57,-49.48 29.18,-33.25 43.65,-80.44 43.65,-142.11 0,-61.14 -12.44,-109.61 -37.3,-145.64 -24.62,-36.03 -62.93,-54.05 -114.44,-54.05l-208.84 0zm0 -108.09l165.71 0c49.47,0 88.56,-14.97 116.72,-45.18 28.17,-30.2 42.37,-73.58 42.37,-130.42 0,-59.63 -14.72,-104.54 -44.15,-134.23 -29.45,-29.95 -72.83,-44.91 -129.67,-44.91l-150.98 0 0 354.74z"/>
 </g>
</svg>
