<?xml version="1.0" encoding="UTF-8"?>
<!DOCTYPE svg PUBLIC "-//W3C//DTD SVG 1.1//EN" "http://www.w3.org/Graphics/SVG/1.1/DTD/svg11.dtd">
<!-- Creator: CorelDRAW 2021.5 -->
<svg xmlns="http://www.w3.org/2000/svg" xml:space="preserve" width="53.6311mm" height="58.728mm" version="1.1" style="shape-rendering:geometricPrecision; text-rendering:geometricPrecision; image-rendering:optimizeQuality; fill-rule:evenodd; clip-rule:evenodd"
viewBox="0 0 1480.41 1621.1"
 xmlns:xlink="http://www.w3.org/1999/xlink"
 xmlns:xodm="http://www.corel.com/coreldraw/odm/2003">
 <defs>
  <style type="text/css">
   <![CDATA[
    .fil0 {fill:#FEFEFE;fill-rule:nonzero}
   ]]>
  </style>
 </defs>
 <g id="Layer_x0020_1">
  <metadata id="CorelCorpID_0Corel-Layer"/>
  <g id="_1420630745744">
   <path class="fil0" d="M487.69 1017.3l0 205.62 437.02 398.18 69.61 0 0 -193.45 -510.48 -465.11c2.52,18.06 3.85,36.34 3.85,54.76z"/>
   <path class="fil0" d="M823.91 646.27c-219.17,42.54 -325.47,-101.78 -489.04,-167.8 -204.37,-82.5 -334.86,-7.07 -334.86,-7.07 354.41,-21.21 435.18,332.95 462.67,407.15l531.65 484.4 0 -345.65c0,-127.79 61.83,-237.3 169.02,-319.72 154.22,-118.56 317.06,-223.83 317.06,-401.65 0,0 -17.53,226.32 -656.5,350.34z"/>
   <polygon class="fil0" points="487.69,1287.62 487.69,1621.1 853.69,1621.1 "/>
   <path class="fil0" d="M741.01 0l-415.96 188.49 210.18 52.69 0 119.76 17.73 0c-5.46,16.44 -8.42,33.86 -8.42,51.92 0,98.86 87.96,179.01 196.47,179.01 108.51,0 196.47,-80.15 196.47,-179.01 0,-18.06 -2.96,-35.49 -8.42,-51.92l17.73 0 0 -119.76 210.18 -52.69 -415.96 -188.49z"/>
  </g>
 </g>
</svg>
