<?xml version="1.0" encoding="UTF-8"?>
<!DOCTYPE svg PUBLIC "-//W3C//DTD SVG 1.1//EN" "http://www.w3.org/Graphics/SVG/1.1/DTD/svg11.dtd">
<!-- Creator: CorelDRAW 2021.5 -->
<svg xmlns="http://www.w3.org/2000/svg" xml:space="preserve" width="121.032mm" height="41.7256mm" version="1.1" style="shape-rendering:geometricPrecision; text-rendering:geometricPrecision; image-rendering:optimizeQuality; fill-rule:evenodd; clip-rule:evenodd"
viewBox="0 0 18975.13 6541.63"
 xmlns:xlink="http://www.w3.org/1999/xlink"
 xmlns:xodm="http://www.corel.com/coreldraw/odm/2003">
 <defs>
  <style type="text/css">
   <![CDATA[
    .str0 {stroke:#FEFEFE;stroke-width:78.33;stroke-miterlimit:22.9256}
    .fil1 {fill:none;fill-rule:nonzero}
    .fil0 {fill:#FEFEFE;fill-rule:nonzero}
   ]]>
  </style>
 </defs>
 <g id="Layer_x0020_1">
  <metadata id="CorelCorpID_0Corel-Layer"/>
  <path class="fil0" d="M-0 3001.91l501.73 0 0 -2272.88 -501.73 0 0 2272.88zm501.73 -2603.08l0 -398.83 -501.73 0 0 398.83 501.73 0zm389.29 2603.08l501.73 0 0 -1766.83c0,-30.02 0,-64.33 25.73,-94.35 25.74,-25.73 55.75,-25.73 85.77,-25.73l510.31 0c184.42,0 287.34,42.88 360.24,137.23 81.48,107.2 94.33,253.02 94.33,403.11l0 1346.58 501.77 0 0 -1496.66c0,-313.07 -102.94,-484.61 -223.02,-591.8 -180.11,-162.97 -398.83,-184.42 -634.68,-184.42l-801.93 0c-98.64,0 -253.02,-4.28 -347.36,102.94 -68.62,72.9 -72.9,175.81 -72.9,244.43l0 1925.51zm3759.96 0l0 -385.97 -124.36 0c-90.05,0 -278.75,-4.28 -390.25,-98.63 -145.8,-120.08 -132.95,-334.5 -132.95,-488.89l0 -913.42 634.7 0 0 -385.97 -634.7 0 0 -729.03 -501.73 0 0 729.03 -313.07 0 0 385.97 313.07 0 0 1145.01c0,287.33 81.48,454.58 227.28,574.65 141.51,115.78 304.48,167.25 608.95,167.25l313.05 0zm2276.19 0l0 -385.97 -1110.7 0c-184.4,0 -394.53,-25.73 -458.86,-270.17 -17.15,-68.61 -30.04,-214.41 -30.04,-313.04l1320.85 0c90.05,0 175.83,-17.17 244.45,-85.79 94.33,-94.33 107.2,-227.28 107.2,-343.06 0,-287.33 -55.75,-570.36 -321.63,-737.62 -210.14,-132.93 -484.6,-145.8 -750.48,-145.8 -214.42,0 -600.39,0 -849.11,214.42 -248.73,214.42 -270.17,527.48 -270.17,952.03 0,300.2 12.87,613.25 162.95,827.67 188.7,265.88 463.15,287.33 694.73,287.33l1260.8 0zm-1599.6 -1355.15c4.3,-150.08 0,-274.45 102.94,-390.25 137.23,-154.38 343.08,-150.08 476.01,-150.08 141.52,0 304.49,8.58 428.83,102.91 72.92,55.75 145.82,162.97 145.82,304.49 0,60.03 -12.87,132.93 -111.5,132.93l-1042.1 0zm2001.73 1355.15l501.75 0 0 -3001.91 -501.75 0 0 3001.91zm891.03 0l501.73 0 0 -3001.91 -501.73 0 0 3001.91zm891.03 0l501.73 0 0 -2272.88 -501.73 0 0 2272.88zm501.73 -2603.08l0 -398.83 -501.73 0 0 398.83 501.73 0zm2168.97 2603.08l0 -2551.61 1175.05 0 0 -450.3 -2911.86 0 0 450.3 1170.75 0 0 2551.61 566.06 0zm3193.91 0l0 -385.97 -1110.7 0c-184.4,0 -394.53,-25.73 -458.86,-270.17 -17.15,-68.61 -30.04,-214.41 -30.04,-313.04l1320.85 0c90.05,0 175.83,-17.17 244.45,-85.79 94.33,-94.33 107.2,-227.28 107.2,-343.06 0,-287.33 -55.75,-570.36 -321.63,-737.62 -210.14,-132.93 -484.6,-145.8 -750.48,-145.8 -214.42,0 -600.39,0 -849.11,214.42 -248.73,214.42 -270.17,527.48 -270.17,952.03 0,300.2 12.87,613.25 162.95,827.67 188.7,265.88 463.15,287.33 694.73,287.33l1260.8 0zm-1599.6 -1355.15c4.3,-150.08 0,-274.45 102.94,-390.25 137.23,-154.38 343.06,-150.08 476.01,-150.08 141.52,0 304.49,8.58 428.83,102.91 72.92,55.75 145.82,162.97 145.82,304.49 0,60.03 -12.87,132.93 -111.5,132.93l-1042.1 0zm1971.71 1355.15l1453.78 0c107.2,0 248.73,-8.58 364.51,-94.35 85.79,-68.61 188.7,-210.14 188.7,-484.6 0,-124.36 -21.43,-291.61 -137.23,-415.98 -111.5,-120.08 -295.9,-180.12 -566.06,-257.3l-488.89 -137.23c-60.05,-17.15 -218.7,-64.33 -283.03,-115.78 -68.62,-55.75 -72.9,-111.52 -72.9,-175.84 0,-60.03 4.28,-115.78 64.33,-162.95 55.75,-42.88 120.08,-42.88 175.83,-42.88l1205.05 0 0 -385.97 -1282.25 0c-192.98,0 -411.7,12.87 -544.63,197.27 -90.05,124.37 -107.2,274.45 -107.2,385.95 0,111.5 17.15,261.6 107.2,385.97 90.05,124.36 257.3,210.13 497.45,274.45l437.42 120.06c317.33,85.79 377.38,115.8 411.68,145.82 55.75,51.45 64.33,111.5 64.33,171.53 0,34.32 0,94.36 -42.88,141.52 -47.17,55.75 -115.8,64.33 -167.25,64.33l-1277.95 0 0 385.97zm3627.04 0l0 -385.97 -124.37 0c-90.05,0 -278.73,-4.28 -390.25,-98.63 -145.8,-120.08 -132.93,-334.5 -132.93,-488.89l0 -913.42 634.7 0 0 -385.97 -634.7 0 0 -729.03 -501.75 0 0 729.03 -313.05 0 0 385.97 313.05 0 0 1145.01c0,287.33 81.48,454.58 227.28,574.65 141.52,115.78 304.49,167.25 608.97,167.25l313.05 0z"/>
  <g>
   <path class="fil1 str0" d="M3735.17 4638.27l0 593.87 70.78 -66.87 47.19 -39.32c81.27,-65.55 173.05,-98.33 275.3,-98.33 146.84,0 275.3,49.82 385.42,148.8 102.27,91.78 153.39,210.43 153.39,356.59 0,149.44 -68.17,308.73 -204.52,478.5l-86.53 106.19 -117.97 129.14 -169.13 -129.14c18.37,-5.25 39.34,-19.66 62.95,-43.27 110.12,-109.46 195.31,-232.69 255.63,-368.38 28.85,-73.42 43.25,-135.68 43.25,-188.12 0,-72.76 -13.11,-136.99 -39.32,-192.05 -47.21,-91.12 -133.72,-136.99 -259.56,-136.99 -107.5,0 -207.13,57.68 -298.91,172.38 -28.83,39.34 -57.68,90.46 -86.53,152.73 -20.98,57.69 -31.45,107.5 -31.45,149.46l0 839.01 -208.45 0 0 -582.07c-97.01,97.01 -218.94,145.52 -365.76,145.52 -146.82,0 -277.92,-51.78 -393.28,-155.35 -115.37,-103.57 -173.07,-232.7 -173.07,-387.4 0,-157.31 53.76,-284.47 161.26,-381.47 78.66,-70.8 170.43,-118.01 275.3,-141.59l106.19 -11.81 106.19 10.47c52.44,7.23 87.84,17.06 106.19,28.85l0 173.05 -39.32 -11.79 -19.68 -17.04 -58.98 -22.29 -59 0c-110.14,0 -196.65,39.34 -259.56,117.33 -62.95,78 -94.4,171.08 -94.4,277.92 0,164.54 64.23,279.24 192.71,344.13 55.04,18.36 103.57,27.53 145.51,27.53 94.4,0 190.11,-48.49 287.11,-145.51 55.06,-55.08 82.59,-107.5 82.59,-157.33l0 -975.36 -1199.53 0 0 -161.25 2540.64 0 0 161.25 -1132.65 0zm1720.96 0l0 1864.19 -208.45 0 0 -1864.19 -385.42 0 0 -161.25 975.34 0 0 161.25 -381.47 0zm1984.46 0l0 1864.19 -208.45 0 0 -991.08 -715.77 0 0 275.3 0 43.27 0 23.58 -32.78 23.61 -53.74 7.87c-39.34,0 -91.78,-34.08 -157.33,-102.27 -47.19,-47.19 -114.06,-125.86 -200.58,-235.97 -23.58,-34.08 -36.7,-68.17 -39.32,-102.27l11.81 -53.08c10.47,-13.77 24.91,-25.57 43.25,-36.7l19.66 -7.87 39.34 -12.46 169.12 0 0 -696.12 -499.48 0 0 -161.25 1919.24 0 0 161.25 -294.96 0zm-208.45 0l-715.77 0 0 696.12 715.77 0 0 -696.12zm2216.5 0l0 1864.19 -208.44 0 0 -605.66c-138.95,117.99 -298.9,176.97 -479.82,176.97 -207.12,0 -380.17,-64.23 -519.14,-192.69 -154.69,-141.59 -232.05,-319.89 -232.05,-534.88l31.48 11.81 35.38 11.79c18.36,0 30.15,0 35.4,0l39.32 0c91.78,0 173.07,-27.53 243.85,-81.93 65.53,-57.04 98.32,-140.93 98.32,-252.36 0,-70.14 -32.78,-161.25 -98.32,-272.68l-98.33 -124.54 -554.54 0 0 -161.25 1990.04 0 0 161.25 -283.17 0zm-208.44 0l-692.19 0 47.21 78.67 31.45 58.34 62.93 153.38 19.66 121.27c0,172.39 -76.02,306.11 -228.11,399.84l-98.32 39.32 -133.72 35.42 11.79 39.32 15.74 31.45 11.79 30.82 11.81 23.59c94.4,188.13 238.6,282.51 432.63,282.51 110.1,0 208.44,-30.15 294.95,-90.46 44.59,-28.19 86.54,-63.59 125.88,-105.54l86.51 -121.91 0 -976.02zm1107.43 0l0 1864.19 -208.45 0 0 -1864.19 -385.41 0 0 -161.25 975.34 0 0 161.25 -381.49 0zm1827.15 0l0 1864.19 -208.44 0 0 -597.79c-23.61,31.45 -53.76,60.3 -90.46,86.51l-102.25 51.14c-31.47,15.72 -68.18,27.53 -110.14,35.38l-114.04 7.87c-78.66,0 -150.11,-11.15 -214.35,-33.42 -64.23,-22.28 -128.46,-60.97 -192.71,-117.33 -64.23,-56.38 -112.1,-117.33 -143.55,-182.22 -26.23,-70.8 -39.34,-146.18 -39.34,-227.45 0,-148.8 55.06,-277.92 165.18,-388.04 52.44,-52.44 112.74,-93.74 180.91,-125.2 36.72,-15.72 72.12,-26.23 106.2,-31.47 34.08,-5.24 68.17,-7.87 102.25,-7.87l90.46 0 98.33 16.4 19.64 8.51 31.47 8.53 27.53 178.95c-10.49,-15.74 -35.38,-28.85 -74.72,-39.34l-102.25 -15.72c-44.59,0 -74.74,0 -90.46,0l-86.53 24.25 -78.66 36.7 -59 49.15 652.85 448.37 23.61 -86.53 0 -963.57 -1258.53 0 0 -161.25 1742.27 0 7.87 161.25 -283.17 0zm-968.13 697.44l-17.04 38.68 -8.54 27.53 -20.98 70.78 0 51.13c0,62.93 8.53,117.33 25.59,163.22 17.04,45.23 46.53,86.53 88.49,123.23 36.7,39.32 79.31,70.8 129.12,94.4 60.3,18.34 110.12,27.53 149.46,27.53l62.93 0 43.25 -15.74c20.98,-5.24 38.02,-10.49 51.13,-17.04 13.11,-6.55 30.81,-19 54.4,-37.36l39.34 -26.87 47.19 -42.6 -644.32 -456.88zm4277.98 -697.44l0 1864.19 -208.45 0 0 -597.79c-23.59,31.45 -53.74,60.3 -90.46,86.51l-102.23 51.14c-31.48,15.72 -68.18,27.53 -110.14,35.38l-114.06 7.87c-78.66,0 -150.1,-11.15 -214.35,-33.42 -64.23,-22.28 -128.46,-60.97 -192.71,-117.33 -64.23,-56.38 -112.08,-117.33 -143.55,-182.22 -26.23,-70.8 -39.34,-146.18 -39.34,-227.45 0,-148.8 55.08,-277.92 165.2,-388.04 52.44,-52.44 112.74,-93.74 180.91,-125.2 36.7,-15.72 72.1,-26.23 106.19,-31.47 34.08,-5.24 68.17,-7.87 102.25,-7.87l90.46 0 98.33 16.4 19.66 8.51 31.47 8.53 27.51 178.95c-10.47,-15.74 -35.38,-28.85 -74.7,-39.34l-102.27 -15.72c-44.57,0 -74.72,0 -90.46,0l-86.51 24.25 -78.66 36.7 -59 49.15 652.85 448.37 23.59 -86.53 0 -963.57 -1258.51 0 0 -161.25 1742.27 0 7.87 161.25 -283.17 0zm-968.15 697.44l-17.04 38.68 -8.53 27.53 -20.98 70.78 0 51.13c0,62.93 8.51,117.33 25.57,163.22 17.04,45.23 46.55,86.53 88.49,123.23 36.72,39.32 79.31,70.8 129.14,94.4 60.3,18.34 110.12,27.53 149.46,27.53l62.91 0 43.25 -15.74c20.98,-5.24 38.02,-10.49 51.13,-17.04 13.11,-6.55 30.82,-19 54.42,-37.36l39.34 -26.87 47.19 -42.6 -644.34 -456.88zm2988 -697.44l0 1864.19 -208.44 0 0 -1164.13 -735.44 0 0 334.95 0 54.4c0,11.81 -1.33,20.32 -3.94,24.91 -2.63,4.58 -15.08,17.04 -37.38,38.02l-45.23 0c-15.72,0 -44.57,-17.04 -86.53,-50.48l-145.51 -152.72c-39.34,-43.91 -81.27,-101.61 -125.86,-171.75 -23.59,-39.32 -39.32,-74.05 -47.19,-105.53 0,-47.19 20.98,-87.17 62.93,-120.61l35.38 -12.45 47.21 0 1081.54 0 0 -538.81 -1459.11 0 0 -161.25 1990.04 0 0 161.25 -322.49 0zm891.12 0l0 1864.19 -208.45 0 0 -1864.19 -385.41 0 0 -161.25 975.34 0 0 161.25 -381.49 0zm-107.83 -161.25l-814.1 -845.56 137.65 -150.77 806.23 996.34 -129.78 0z"/>
   <path id="_1" class="fil0" d="M3735.17 4638.27l0 593.87 70.78 -66.87 47.19 -39.32c81.27,-65.55 173.05,-98.33 275.3,-98.33 146.84,0 275.3,49.82 385.42,148.8 102.27,91.78 153.39,210.43 153.39,356.59 0,149.44 -68.17,308.73 -204.52,478.5l-86.53 106.19 -117.97 129.14 -169.13 -129.14c18.37,-5.25 39.34,-19.66 62.95,-43.27 110.12,-109.46 195.31,-232.69 255.63,-368.38 28.85,-73.42 43.25,-135.68 43.25,-188.12 0,-72.76 -13.11,-136.99 -39.32,-192.05 -47.21,-91.12 -133.72,-136.99 -259.56,-136.99 -107.5,0 -207.13,57.68 -298.91,172.38 -28.83,39.34 -57.68,90.46 -86.53,152.73 -20.98,57.69 -31.45,107.5 -31.45,149.46l0 839.01 -208.45 0 0 -582.07c-97.01,97.01 -218.94,145.52 -365.76,145.52 -146.82,0 -277.92,-51.78 -393.28,-155.35 -115.37,-103.57 -173.07,-232.7 -173.07,-387.4 0,-157.31 53.76,-284.47 161.26,-381.47 78.66,-70.8 170.43,-118.01 275.3,-141.59l106.19 -11.81 106.19 10.47c52.44,7.23 87.84,17.06 106.19,28.85l0 173.05 -39.32 -11.79 -19.68 -17.04 -58.98 -22.29 -59 0c-110.14,0 -196.65,39.34 -259.56,117.33 -62.95,78 -94.4,171.08 -94.4,277.92 0,164.54 64.23,279.24 192.71,344.13 55.04,18.36 103.57,27.53 145.51,27.53 94.4,0 190.11,-48.49 287.11,-145.51 55.06,-55.08 82.59,-107.5 82.59,-157.33l0 -975.36 -1199.53 0 0 -161.25 2540.64 0 0 161.25 -1132.65 0zm1720.96 0l0 1864.19 -208.45 0 0 -1864.19 -385.42 0 0 -161.25 975.34 0 0 161.25 -381.47 0zm1984.46 0l0 1864.19 -208.45 0 0 -991.08 -715.77 0 0 275.3 0 43.27 0 23.58 -32.78 23.61 -53.74 7.87c-39.34,0 -91.78,-34.08 -157.33,-102.27 -47.19,-47.19 -114.06,-125.86 -200.58,-235.97 -23.58,-34.08 -36.7,-68.17 -39.32,-102.27l11.81 -53.08c10.47,-13.77 24.91,-25.57 43.25,-36.7l19.66 -7.87 39.34 -12.46 169.12 0 0 -696.12 -499.48 0 0 -161.25 1919.24 0 0 161.25 -294.96 0zm-208.45 0l-715.77 0 0 696.12 715.77 0 0 -696.12zm2216.5 0l0 1864.19 -208.44 0 0 -605.66c-138.95,117.99 -298.9,176.97 -479.82,176.97 -207.12,0 -380.17,-64.23 -519.14,-192.69 -154.69,-141.59 -232.05,-319.89 -232.05,-534.88l31.48 11.81 35.38 11.79c18.36,0 30.15,0 35.4,0l39.32 0c91.78,0 173.07,-27.53 243.85,-81.93 65.53,-57.04 98.32,-140.93 98.32,-252.36 0,-70.14 -32.78,-161.25 -98.32,-272.68l-98.33 -124.54 -554.54 0 0 -161.25 1990.04 0 0 161.25 -283.17 0zm-208.44 0l-692.19 0 47.21 78.67 31.45 58.34 62.93 153.38 19.66 121.27c0,172.39 -76.02,306.11 -228.11,399.84l-98.32 39.32 -133.72 35.42 11.79 39.32 15.74 31.45 11.79 30.82 11.81 23.59c94.4,188.13 238.6,282.51 432.63,282.51 110.1,0 208.44,-30.15 294.95,-90.46 44.59,-28.19 86.54,-63.59 125.88,-105.54l86.51 -121.91 0 -976.02zm1107.43 0l0 1864.19 -208.45 0 0 -1864.19 -385.41 0 0 -161.25 975.34 0 0 161.25 -381.49 0zm1827.15 0l0 1864.19 -208.44 0 0 -597.79c-23.61,31.45 -53.76,60.3 -90.46,86.51l-102.25 51.14c-31.47,15.72 -68.18,27.53 -110.14,35.38l-114.04 7.87c-78.66,0 -150.11,-11.15 -214.35,-33.42 -64.23,-22.28 -128.46,-60.97 -192.71,-117.33 -64.23,-56.38 -112.1,-117.33 -143.55,-182.22 -26.23,-70.8 -39.34,-146.18 -39.34,-227.45 0,-148.8 55.06,-277.92 165.18,-388.04 52.44,-52.44 112.74,-93.74 180.91,-125.2 36.72,-15.72 72.12,-26.23 106.2,-31.47 34.08,-5.24 68.17,-7.87 102.25,-7.87l90.46 0 98.33 16.4 19.64 8.51 31.47 8.53 27.53 178.95c-10.49,-15.74 -35.38,-28.85 -74.72,-39.34l-102.25 -15.72c-44.59,0 -74.74,0 -90.46,0l-86.53 24.25 -78.66 36.7 -59 49.15 652.85 448.37 23.61 -86.53 0 -963.57 -1258.53 0 0 -161.25 1742.27 0 7.87 161.25 -283.17 0zm-968.13 697.44l-17.04 38.68 -8.54 27.53 -20.98 70.78 0 51.13c0,62.93 8.53,117.33 25.59,163.22 17.04,45.23 46.53,86.53 88.49,123.23 36.7,39.32 79.31,70.8 129.12,94.4 60.3,18.34 110.12,27.53 149.46,27.53l62.93 0 43.25 -15.74c20.98,-5.24 38.02,-10.49 51.13,-17.04 13.11,-6.55 30.81,-19 54.4,-37.36l39.34 -26.87 47.19 -42.6 -644.32 -456.88zm4277.98 -697.44l0 1864.19 -208.45 0 0 -597.79c-23.59,31.45 -53.74,60.3 -90.46,86.51l-102.23 51.14c-31.48,15.72 -68.18,27.53 -110.14,35.38l-114.06 7.87c-78.66,0 -150.1,-11.15 -214.35,-33.42 -64.23,-22.28 -128.46,-60.97 -192.71,-117.33 -64.23,-56.38 -112.08,-117.33 -143.55,-182.22 -26.23,-70.8 -39.34,-146.18 -39.34,-227.45 0,-148.8 55.08,-277.92 165.2,-388.04 52.44,-52.44 112.74,-93.74 180.91,-125.2 36.7,-15.72 72.1,-26.23 106.19,-31.47 34.08,-5.24 68.17,-7.87 102.25,-7.87l90.46 0 98.33 16.4 19.66 8.51 31.47 8.53 27.51 178.95c-10.47,-15.74 -35.38,-28.85 -74.7,-39.34l-102.27 -15.72c-44.57,0 -74.72,0 -90.46,0l-86.51 24.25 -78.66 36.7 -59 49.15 652.85 448.37 23.59 -86.53 0 -963.57 -1258.51 0 0 -161.25 1742.27 0 7.87 161.25 -283.17 0zm-968.15 697.44l-17.04 38.68 -8.53 27.53 -20.98 70.78 0 51.13c0,62.93 8.51,117.33 25.57,163.22 17.04,45.23 46.55,86.53 88.49,123.23 36.72,39.32 79.31,70.8 129.14,94.4 60.3,18.34 110.12,27.53 149.46,27.53l62.91 0 43.25 -15.74c20.98,-5.24 38.02,-10.49 51.13,-17.04 13.11,-6.55 30.82,-19 54.42,-37.36l39.34 -26.87 47.19 -42.6 -644.34 -456.88zm2988 -697.44l0 1864.19 -208.44 0 0 -1164.13 -735.44 0 0 334.95 0 54.4c0,11.81 -1.33,20.32 -3.94,24.91 -2.63,4.58 -15.08,17.04 -37.38,38.02l-45.23 0c-15.72,0 -44.57,-17.04 -86.53,-50.48l-145.51 -152.72c-39.34,-43.91 -81.27,-101.61 -125.86,-171.75 -23.59,-39.32 -39.32,-74.05 -47.19,-105.53 0,-47.19 20.98,-87.17 62.93,-120.61l35.38 -12.45 47.21 0 1081.54 0 0 -538.81 -1459.11 0 0 -161.25 1990.04 0 0 161.25 -322.49 0zm891.12 0l0 1864.19 -208.45 0 0 -1864.19 -385.41 0 0 -161.25 975.34 0 0 161.25 -381.49 0zm-107.83 -161.25l-814.1 -845.56 137.65 -150.77 806.23 996.34 -129.78 0z"/>
  </g>
 </g>
</svg>
