<?xml version="1.0" encoding="UTF-8"?>
<!DOCTYPE svg PUBLIC "-//W3C//DTD SVG 1.1//EN" "http://www.w3.org/Graphics/SVG/1.1/DTD/svg11.dtd">
<!-- Creator: CorelDRAW 2021.5 -->
<svg xmlns="http://www.w3.org/2000/svg" xml:space="preserve" width="37.7489mm" height="49.2505mm" version="1.1" style="shape-rendering:geometricPrecision; text-rendering:geometricPrecision; image-rendering:optimizeQuality; fill-rule:evenodd; clip-rule:evenodd"
viewBox="0 0 785.16 1024.39"
 xmlns:xlink="http://www.w3.org/1999/xlink"
 xmlns:xodm="http://www.corel.com/coreldraw/odm/2003">
 <defs>
  <style type="text/css">
   <![CDATA[
    .fil0 {fill:#F5B2B6}
   ]]>
  </style>
 </defs>
 <g id="Layer_x0020_1">
  <metadata id="CorelCorpID_0Corel-Layer"/>
  <path class="fil0" d="M118.46 648.27l0 42.87 0 1.23 -0.05 0c-0.63,8.64 -7.85,15.46 -16.65,15.46 -8.8,0 -16.02,-6.82 -16.64,-15.46l-0.05 0 0 -1.23 0 -42.87 0 -6.21c-18.37,-10.61 -36.75,-21.22 -55.11,-31.82 -39.94,-23.06 -39.94,-15.5 0,-38.55l55.11 -31.82 0 -42.2 0.07 0c0.01,-6.55 3.92,-12.76 10.36,-15.39l27.85 -11.38 -79.23 -32.37c-8.51,-3.46 -12.6,-13.15 -9.14,-21.65 1.76,-4.31 5.13,-7.5 9.14,-9.13l195.38 -79.82 0 -185.98c0,-9.22 7.47,-16.7 16.69,-16.7 9.22,0 16.7,7.48 16.7,16.7l0 172.35 68.79 -28.1 0 -185.99c0,-9.22 7.47,-16.7 16.69,-16.7 9.21,0 16.7,7.48 16.7,16.7l0 172.35 28.14 -11.5c4.18,-1.7 8.64,-1.57 12.52,0l0 -0 28.14 11.5 0 -214.09c0,-9.22 7.47,-16.7 16.69,-16.7 9.22,0 16.69,7.48 16.69,16.7l0 227.72 68.79 28.11 0 -297.58c0,-9.22 7.48,-16.7 16.7,-16.7 9.22,0 16.69,7.48 16.69,16.7l0 311.21 195.39 79.82c8.5,3.46 12.58,13.16 9.12,21.65 -1.76,4.32 -5.12,7.5 -9.13,9.13l0 0 -195.39 79.82 0 0 -33.39 13.64 0 -0.01 -68.79 28.1 0 0 -61.75 25.23c-4.01,1.55 -8.27,1.46 -12,0.01l-61.81 -25.25 0 -0.01 -68.79 -28.09 -33.39 -13.64 0 -0 -17.49 -7.15 -45.77 -18.7 0 0.01 -8.96 -3.66 -48.82 19.94 0 31.07c18.37,10.61 36.74,21.21 55.11,31.82 39.94,23.05 39.94,15.49 0,38.55 -18.37,10.6 -36.74,21.21 -55.11,31.82l0 6.21zm256.61 -31.81l0 151.25 68.79 0 0 -151.25 33.38 -13.64 0 164.88 68.79 0 0 -192.98 33.39 -13.64 0 222.89 0 0.43c0,3.89 -1.34,7.46 -3.57,10.3l-152.49 222.21c-1.16,1.76 -2.67,3.32 -4.52,4.58 -7.6,5.19 -17.96,3.23 -23.14,-4.37l-152.64 -222.4c-2.23,-2.85 -3.57,-6.42 -3.57,-10.31l0 -223.33 33.39 13.64 0 192.99 68.79 0 0 -164.89 33.39 13.64zm-234.88 -25.5c-12.81,7.39 -25.62,14.79 -38.43,22.18 -12.81,-7.39 -25.61,-14.79 -38.42,-22.18 12.81,-7.4 25.61,-14.79 38.42,-22.19 12.81,7.4 25.61,14.79 38.43,22.19zm305.91 333.95l-73.27 0 -84.98 -123.82 70.52 0 102.17 0 70.53 0 -84.97 123.82zm-278.81 -471.97l177.69 -72.59c8.5,-3.46 18.19,0.63 21.65,9.13 3.46,8.5 -0.63,18.2 -9.13,21.65l-146.28 59.76 49.73 20.32c1.07,0.31 2.09,0.74 3.06,1.24l99.1 40.5c1.08,0.32 2.1,0.73 3.07,1.25l43.28 17.67 43.26 -17.66c0.98,-0.52 2.01,-0.94 3.08,-1.26l99.11 -40.49c0.97,-0.52 1.99,-0.94 3.06,-1.25l166.65 -68.07 -166.64 -68.09c-1.07,-0.31 -2.09,-0.72 -3.05,-1.24l-99.13 -40.49c-1.06,-0.33 -2.09,-0.74 -3.06,-1.25l-43.27 -17.68 -43.29 17.68c-0.96,0.51 -1.98,0.94 -3.04,1.25l-99.12 40.49c-0.96,0.51 -2,0.93 -3.06,1.25l-166.64 68.08 72.97 29.81z"/>
 </g>
</svg>
