<?xml version="1.0" encoding="UTF-8"?>
<!DOCTYPE svg PUBLIC "-//W3C//DTD SVG 1.1//EN" "http://www.w3.org/Graphics/SVG/1.1/DTD/svg11.dtd">
<!-- Creator: CorelDRAW 2021.5 -->
<svg xmlns="http://www.w3.org/2000/svg" xml:space="preserve" width="179.578mm" height="58.728mm" version="1.1" style="shape-rendering:geometricPrecision; text-rendering:geometricPrecision; image-rendering:optimizeQuality; fill-rule:evenodd; clip-rule:evenodd"
viewBox="0 0 16597.88 5428.07"
 xmlns:xlink="http://www.w3.org/1999/xlink"
 xmlns:xodm="http://www.corel.com/coreldraw/odm/2003">
 <defs>
  <style type="text/css">
   <![CDATA[
    .str0 {stroke:#AD2048;stroke-width:46.18;stroke-miterlimit:22.9256}
    .fil1 {fill:none;fill-rule:nonzero}
    .fil3 {fill:#AD2048;fill-rule:nonzero}
    .fil2 {fill:#AD2048;fill-rule:nonzero}
    .fil0 {fill:#502B6D;fill-rule:nonzero}
   ]]>
  </style>
 </defs>
 <g id="Layer_x0020_1">
  <metadata id="CorelCorpID_0Corel-Layer"/>
  <path class="fil0" d="M5411.18 2757.05l295.8 0 0 -1339.96 -295.8 0 0 1339.96zm295.8 -1534.63l0 -235.13 -295.8 0 0 235.13 295.8 0zm229.51 1534.63l295.8 0 0 -1041.63c0,-17.7 0,-37.92 15.17,-55.62 15.18,-15.17 32.87,-15.17 50.57,-15.17l300.85 0c108.72,0 169.4,25.28 212.38,80.9 48.03,63.2 55.61,149.17 55.61,237.65l0 793.87 295.81 0 0 -882.35c0,-184.57 -60.69,-285.7 -131.48,-348.89 -106.18,-96.08 -235.13,-108.72 -374.17,-108.72l-472.77 0c-58.16,0 -149.17,-2.52 -204.78,60.69 -40.46,42.98 -42.98,103.65 -42.98,144.1l0 1135.17zm2216.66 0l0 -227.55 -73.31 0c-53.09,0 -164.34,-2.52 -230.07,-58.15 -85.96,-70.79 -78.38,-197.2 -78.38,-288.23l0 -538.5 374.18 0 0 -227.55 -374.18 0 0 -429.8 -295.8 0 0 429.8 -184.57 0 0 227.55 184.57 0 0 675.03c0,169.39 48.03,267.99 133.99,338.78 83.42,68.26 179.5,98.6 359.01,98.6l184.56 0zm1341.91 0l0 -227.55 -654.81 0c-108.71,0 -232.59,-15.17 -270.52,-159.28 -10.11,-40.45 -17.71,-126.4 -17.71,-184.55l778.7 0c53.09,0 103.66,-10.12 144.11,-50.58 55.61,-55.61 63.2,-133.99 63.2,-202.25 0,-169.39 -32.87,-336.25 -189.61,-434.86 -123.89,-78.37 -285.69,-85.96 -442.44,-85.96 -126.41,0 -353.96,0 -500.59,126.41 -146.64,126.41 -159.28,310.97 -159.28,561.26 0,176.98 7.59,361.54 96.07,487.95 111.25,156.75 273.05,169.39 409.57,169.39l743.3 0zm-943.04 -798.92c2.53,-88.48 0,-161.8 60.69,-230.07 80.9,-91.01 202.26,-88.48 280.63,-88.48 83.43,0 179.51,5.06 252.82,60.67 42.99,32.87 85.97,96.08 85.97,179.51 0,35.39 -7.59,78.37 -65.73,78.37l-614.36 0zm1180.11 798.92l295.8 0 0 -1769.76 -295.8 0 0 1769.76zm525.3 0l295.8 0 0 -1769.76 -295.8 0 0 1769.76zm525.3 0l295.8 0 0 -1339.96 -295.8 0 0 1339.96zm295.8 -1534.63l0 -235.13 -295.8 0 0 235.13 295.8 0zm1278.7 1534.63l0 -1504.29 692.74 0 0 -265.47 -1716.67 0 0 265.47 690.21 0 0 1504.29 333.72 0zm1882.96 0l0 -227.55 -654.81 0c-108.71,0 -232.59,-15.17 -270.52,-159.28 -10.11,-40.45 -17.71,-126.4 -17.71,-184.55l778.7 0c53.09,0 103.66,-10.12 144.11,-50.58 55.61,-55.61 63.2,-133.99 63.2,-202.25 0,-169.39 -32.87,-336.25 -189.61,-434.86 -123.89,-78.37 -285.69,-85.96 -442.44,-85.96 -126.41,0 -353.96,0 -500.59,126.41 -146.64,126.41 -159.28,310.97 -159.28,561.26 0,176.98 7.59,361.54 96.07,487.95 111.25,156.75 273.05,169.39 409.57,169.39l743.3 0zm-943.04 -798.92c2.53,-88.48 0,-161.8 60.69,-230.07 80.9,-91.01 202.25,-88.48 280.63,-88.48 83.43,0 179.51,5.06 252.82,60.67 42.99,32.87 85.97,96.08 85.97,179.51 0,35.39 -7.59,78.37 -65.73,78.37l-614.36 0zm1162.41 798.92l857.07 0c63.2,0 146.64,-5.06 214.89,-55.62 50.58,-40.45 111.25,-123.89 111.25,-285.69 0,-73.31 -12.63,-171.91 -80.9,-245.24 -65.73,-70.79 -174.45,-106.19 -333.72,-151.69l-288.23 -80.9c-35.4,-10.11 -128.94,-37.92 -166.86,-68.26 -40.46,-32.87 -42.98,-65.74 -42.98,-103.67 0,-35.39 2.52,-68.26 37.92,-96.07 32.87,-25.28 70.79,-25.28 103.66,-25.28l710.43 0 0 -227.55 -755.94 0c-113.77,0 -242.71,7.59 -321.08,116.3 -53.09,73.32 -63.2,161.8 -63.2,227.54 0,65.73 10.11,154.22 63.2,227.55 53.09,73.31 151.69,123.88 293.27,161.8l257.88 70.78c187.08,50.58 222.48,68.27 242.7,85.97 32.87,30.33 37.92,65.73 37.92,101.12 0,20.23 0,55.63 -25.28,83.43 -27.81,32.87 -68.27,37.92 -98.6,37.92l-753.41 0 0 227.55zm2138.31 0l0 -227.55 -73.32 0c-53.09,0 -164.33,-2.52 -230.07,-58.15 -85.96,-70.79 -78.37,-197.2 -78.37,-288.23l0 -538.5 374.18 0 0 -227.55 -374.18 0 0 -429.8 -295.8 0 0 429.8 -184.56 0 0 227.55 184.56 0 0 675.03c0,169.39 48.03,267.99 133.99,338.78 83.43,68.26 179.51,98.6 359.02,98.6l184.56 0z"/>
  <g>
   <path class="fil1 str0" d="M7613.23 3721.76l0 350.11 41.73 -39.42 27.82 -23.18c47.91,-38.64 102.02,-57.97 162.3,-57.97 86.57,0 162.3,29.37 227.22,87.72 60.29,54.11 90.43,124.06 90.43,210.23 0,88.1 -40.19,182.01 -120.57,282.1l-51.01 62.6 -69.55 76.13 -99.71 -76.13c10.83,-3.1 23.19,-11.59 37.11,-25.51 64.92,-64.53 115.15,-137.18 150.7,-217.18 17.01,-43.28 25.5,-79.99 25.5,-110.9 0,-42.9 -7.73,-80.76 -23.18,-113.22 -27.83,-53.72 -78.83,-80.76 -153.02,-80.76 -63.38,0 -122.11,34 -176.22,101.62 -17,23.19 -34,53.33 -51.01,90.04 -12.37,34.01 -18.54,63.38 -18.54,88.11l0 494.63 -122.89 0 0 -343.15c-57.19,57.19 -129.07,85.79 -215.63,85.79 -86.56,0 -163.85,-30.53 -231.85,-91.59 -68.02,-61.06 -102.03,-137.19 -102.03,-228.39 0,-92.74 31.69,-167.71 95.07,-224.89 46.37,-41.74 100.48,-69.57 162.3,-83.47l62.6 -6.96 62.6 6.17c30.92,4.26 51.79,10.06 62.6,17.01l0 102.02 -23.18 -6.95 -11.6 -10.05 -34.77 -13.14 -34.78 0c-64.93,0 -115.93,23.19 -153.02,69.17 -37.11,45.98 -55.65,100.86 -55.65,163.85 0,97 37.87,164.62 113.61,202.88 32.45,10.82 61.06,16.23 85.78,16.23 55.65,0 112.08,-28.59 169.26,-85.78 32.46,-32.47 48.69,-63.38 48.69,-92.75l0 -575.02 -707.18 0 0 -95.06 1497.82 0 0 95.06 -667.75 0zm1014.58 0l0 1099.03 -122.89 0 0 -1099.03 -227.22 0 0 -95.06 575.01 0 0 95.06 -224.89 0zm1169.93 0l0 1099.03 -122.89 0 0 -584.29 -421.98 0 0 162.3 0 25.51 0 13.9 -19.33 13.92 -31.68 4.64c-23.19,0 -54.11,-20.09 -92.75,-60.29 -27.82,-27.82 -67.24,-74.2 -118.25,-139.11 -13.9,-20.09 -21.64,-40.19 -23.18,-60.29l6.96 -31.3c6.17,-8.12 14.69,-15.07 25.5,-21.64l11.59 -4.64 23.19 -7.35 99.7 0 0 -410.4 -294.46 0 0 -95.06 1131.48 0 0 95.06 -173.89 0zm-122.89 0l-421.98 0 0 410.4 421.98 0 0 -410.4zm1306.73 0l0 1099.03 -122.88 0 0 -357.07c-81.92,69.56 -176.21,104.33 -282.87,104.33 -122.11,0 -224.13,-37.87 -306.05,-113.6 -91.2,-83.47 -136.8,-188.59 -136.8,-315.33l18.56 6.96 20.86 6.95c10.82,0 17.77,0 20.87,0l23.18 0c54.11,0 102.03,-16.23 143.76,-48.3 38.63,-33.63 57.96,-83.08 57.96,-148.78 0,-41.35 -19.33,-95.06 -57.96,-160.76l-57.97 -73.42 -326.92 0 0 -95.06 1173.22 0 0 95.06 -166.94 0zm-122.88 0l-408.08 0 27.83 46.38 18.54 34.39 37.1 90.42 11.59 71.49c0,101.63 -44.82,180.46 -134.48,235.73l-57.96 23.18 -78.83 20.88 6.95 23.18 9.28 18.54 6.95 18.17 6.96 13.91c55.65,110.91 140.67,166.55 255.05,166.55 64.91,0 122.88,-17.77 173.88,-53.33 26.29,-16.62 51.02,-37.49 74.21,-62.22l51 -71.87 0 -575.41zm652.88 0l0 1099.03 -122.89 0 0 -1099.03 -227.21 0 0 -95.06 575.01 0 0 95.06 -224.9 0zm1077.18 0l0 1099.03 -122.88 0 0 -352.43c-13.92,18.54 -31.69,35.55 -53.33,51l-60.28 30.15c-18.55,9.27 -40.2,16.23 -64.93,20.86l-67.23 4.64c-46.37,0 -88.5,-6.57 -126.37,-19.71 -37.87,-13.13 -75.73,-35.94 -113.61,-69.17 -37.87,-33.24 -66.09,-69.17 -84.63,-107.43 -15.46,-41.74 -23.19,-86.18 -23.19,-134.09 0,-87.72 32.46,-163.85 97.38,-228.77 30.92,-30.92 66.46,-55.26 106.65,-73.81 21.65,-9.27 42.52,-15.46 62.61,-18.55 20.09,-3.09 40.19,-4.64 60.28,-4.64l53.33 0 57.97 9.67 11.58 5.02 18.55 5.03 16.23 105.5c-6.18,-9.28 -20.86,-17.01 -44.05,-23.19l-60.28 -9.27c-26.29,0 -44.06,0 -53.33,0l-51.01 14.3 -46.37 21.64 -34.78 28.98 384.89 264.33 13.92 -51.01 0 -568.07 -741.96 0 0 -95.06 1027.14 0 4.64 95.06 -166.94 0zm-570.76 411.17l-10.05 22.8 -5.04 16.23 -12.37 41.73 0 30.14c0,37.1 5.03,69.17 15.08,96.23 10.05,26.67 27.43,51.01 52.17,72.65 21.64,23.18 46.76,41.74 76.12,55.65 35.55,10.81 64.92,16.23 88.11,16.23l37.1 0 25.5 -9.28c12.37,-3.09 22.41,-6.18 30.14,-10.05 7.73,-3.86 18.16,-11.2 32.07,-22.03l23.19 -15.84 27.82 -25.11 -379.86 -269.35zm2522.06 -411.17l0 1099.03 -122.89 0 0 -352.43c-13.91,18.54 -31.68,35.55 -53.33,51l-60.27 30.15c-18.56,9.27 -40.2,16.23 -64.93,20.86l-67.24 4.64c-46.37,0 -88.49,-6.57 -126.37,-19.71 -37.87,-13.13 -75.73,-35.94 -113.61,-69.17 -37.87,-33.24 -66.08,-69.17 -84.63,-107.43 -15.46,-41.74 -23.19,-86.18 -23.19,-134.09 0,-87.72 32.47,-163.85 97.39,-228.77 30.92,-30.92 66.46,-55.26 106.65,-73.81 21.64,-9.27 42.51,-15.46 62.6,-18.55 20.09,-3.09 40.19,-4.64 60.28,-4.64l53.33 0 57.97 9.67 11.59 5.02 18.55 5.03 16.22 105.5c-6.17,-9.28 -20.86,-17.01 -44.04,-23.19l-60.29 -9.27c-26.28,0 -44.05,0 -53.33,0l-51 14.3 -46.37 21.64 -34.78 28.98 384.89 264.33 13.91 -51.01 0 -568.07 -741.95 0 0 -95.06 1027.14 0 4.64 95.06 -166.94 0zm-570.77 411.17l-10.05 22.8 -5.03 16.23 -12.37 41.73 0 30.14c0,37.1 5.02,69.17 15.07,96.23 10.05,26.67 27.44,51.01 52.17,72.65 21.65,23.18 46.76,41.74 76.13,55.65 35.55,10.81 64.92,16.23 88.11,16.23l37.09 0 25.5 -9.28c12.37,-3.09 22.41,-6.18 30.14,-10.05 7.73,-3.86 18.17,-11.2 32.08,-22.03l23.19 -15.84 27.82 -25.11 -379.87 -269.35zm1761.56 -411.17l0 1099.03 -122.88 0 0 -686.31 -433.58 0 0 197.47 0 32.07c0,6.96 -0.79,11.98 -2.32,14.69 -1.55,2.7 -8.89,10.05 -22.03,22.41l-26.67 0c-9.27,0 -26.28,-10.05 -51.01,-29.76l-85.78 -90.03c-23.19,-25.89 -47.91,-59.9 -74.2,-101.25 -13.91,-23.18 -23.18,-43.65 -27.82,-62.21 0,-27.82 12.37,-51.39 37.1,-71.1l20.86 -7.34 27.83 0 637.62 0 0 -317.65 -860.21 0 0 -95.06 1173.22 0 0 95.06 -190.12 0zm525.36 0l0 1099.03 -122.89 0 0 -1099.03 -227.21 0 0 -95.06 575.01 0 0 95.06 -224.9 0zm-63.57 -95.06l-479.95 -498.5 81.15 -88.89 475.31 587.38 -76.51 0z"/>
   <path id="_1" class="fil2" d="M7613.23 3721.76l0 350.11 41.73 -39.42 27.82 -23.18c47.91,-38.64 102.02,-57.97 162.3,-57.97 86.57,0 162.3,29.37 227.22,87.72 60.29,54.11 90.43,124.06 90.43,210.23 0,88.1 -40.19,182.01 -120.57,282.1l-51.01 62.6 -69.55 76.13 -99.71 -76.13c10.83,-3.1 23.19,-11.59 37.11,-25.51 64.92,-64.53 115.15,-137.18 150.7,-217.18 17.01,-43.28 25.5,-79.99 25.5,-110.9 0,-42.9 -7.73,-80.76 -23.18,-113.22 -27.83,-53.72 -78.83,-80.76 -153.02,-80.76 -63.38,0 -122.11,34 -176.22,101.62 -17,23.19 -34,53.33 -51.01,90.04 -12.37,34.01 -18.54,63.38 -18.54,88.11l0 494.63 -122.89 0 0 -343.15c-57.19,57.19 -129.07,85.79 -215.63,85.79 -86.56,0 -163.85,-30.53 -231.85,-91.59 -68.02,-61.06 -102.03,-137.19 -102.03,-228.39 0,-92.74 31.69,-167.71 95.07,-224.89 46.37,-41.74 100.48,-69.57 162.3,-83.47l62.6 -6.96 62.6 6.17c30.92,4.26 51.79,10.06 62.6,17.01l0 102.02 -23.18 -6.95 -11.6 -10.05 -34.77 -13.14 -34.78 0c-64.93,0 -115.93,23.19 -153.02,69.17 -37.11,45.98 -55.65,100.86 -55.65,163.85 0,97 37.87,164.62 113.61,202.88 32.45,10.82 61.06,16.23 85.78,16.23 55.65,0 112.08,-28.59 169.26,-85.78 32.46,-32.47 48.69,-63.38 48.69,-92.75l0 -575.02 -707.18 0 0 -95.06 1497.82 0 0 95.06 -667.75 0zm1014.58 0l0 1099.03 -122.89 0 0 -1099.03 -227.22 0 0 -95.06 575.01 0 0 95.06 -224.89 0zm1169.93 0l0 1099.03 -122.89 0 0 -584.29 -421.98 0 0 162.3 0 25.51 0 13.9 -19.33 13.92 -31.68 4.64c-23.19,0 -54.11,-20.09 -92.75,-60.29 -27.82,-27.82 -67.24,-74.2 -118.25,-139.11 -13.9,-20.09 -21.64,-40.19 -23.18,-60.29l6.96 -31.3c6.17,-8.12 14.69,-15.07 25.5,-21.64l11.59 -4.64 23.19 -7.35 99.7 0 0 -410.4 -294.46 0 0 -95.06 1131.48 0 0 95.06 -173.89 0zm-122.89 0l-421.98 0 0 410.4 421.98 0 0 -410.4zm1306.73 0l0 1099.03 -122.88 0 0 -357.07c-81.92,69.56 -176.21,104.33 -282.87,104.33 -122.11,0 -224.13,-37.87 -306.05,-113.6 -91.2,-83.47 -136.8,-188.59 -136.8,-315.33l18.56 6.96 20.86 6.95c10.82,0 17.77,0 20.87,0l23.18 0c54.11,0 102.03,-16.23 143.76,-48.3 38.63,-33.63 57.96,-83.08 57.96,-148.78 0,-41.35 -19.33,-95.06 -57.96,-160.76l-57.97 -73.42 -326.92 0 0 -95.06 1173.22 0 0 95.06 -166.94 0zm-122.88 0l-408.08 0 27.83 46.38 18.54 34.39 37.1 90.42 11.59 71.49c0,101.63 -44.82,180.46 -134.48,235.73l-57.96 23.18 -78.83 20.88 6.95 23.18 9.28 18.54 6.95 18.17 6.96 13.91c55.65,110.91 140.67,166.55 255.05,166.55 64.91,0 122.88,-17.77 173.88,-53.33 26.29,-16.62 51.02,-37.49 74.21,-62.22l51 -71.87 0 -575.41zm652.88 0l0 1099.03 -122.89 0 0 -1099.03 -227.21 0 0 -95.06 575.01 0 0 95.06 -224.9 0zm1077.18 0l0 1099.03 -122.88 0 0 -352.43c-13.92,18.54 -31.69,35.55 -53.33,51l-60.28 30.15c-18.55,9.27 -40.2,16.23 -64.93,20.86l-67.23 4.64c-46.37,0 -88.5,-6.57 -126.37,-19.71 -37.87,-13.13 -75.73,-35.94 -113.61,-69.17 -37.87,-33.24 -66.09,-69.17 -84.63,-107.43 -15.46,-41.74 -23.19,-86.18 -23.19,-134.09 0,-87.72 32.46,-163.85 97.38,-228.77 30.92,-30.92 66.46,-55.26 106.65,-73.81 21.65,-9.27 42.52,-15.46 62.61,-18.55 20.09,-3.09 40.19,-4.64 60.28,-4.64l53.33 0 57.97 9.67 11.58 5.02 18.55 5.03 16.23 105.5c-6.18,-9.28 -20.86,-17.01 -44.05,-23.19l-60.28 -9.27c-26.29,0 -44.06,0 -53.33,0l-51.01 14.3 -46.37 21.64 -34.78 28.98 384.89 264.33 13.92 -51.01 0 -568.07 -741.96 0 0 -95.06 1027.14 0 4.64 95.06 -166.94 0zm-570.76 411.17l-10.05 22.8 -5.04 16.23 -12.37 41.73 0 30.14c0,37.1 5.03,69.17 15.08,96.23 10.05,26.67 27.43,51.01 52.17,72.65 21.64,23.18 46.76,41.74 76.12,55.65 35.55,10.81 64.92,16.23 88.11,16.23l37.1 0 25.5 -9.28c12.37,-3.09 22.41,-6.18 30.14,-10.05 7.73,-3.86 18.16,-11.2 32.07,-22.03l23.19 -15.84 27.82 -25.11 -379.86 -269.35zm2522.06 -411.17l0 1099.03 -122.89 0 0 -352.43c-13.91,18.54 -31.68,35.55 -53.33,51l-60.27 30.15c-18.56,9.27 -40.2,16.23 -64.93,20.86l-67.24 4.64c-46.37,0 -88.49,-6.57 -126.37,-19.71 -37.87,-13.13 -75.73,-35.94 -113.61,-69.17 -37.87,-33.24 -66.08,-69.17 -84.63,-107.43 -15.46,-41.74 -23.19,-86.18 -23.19,-134.09 0,-87.72 32.47,-163.85 97.39,-228.77 30.92,-30.92 66.46,-55.26 106.65,-73.81 21.64,-9.27 42.51,-15.46 62.6,-18.55 20.09,-3.09 40.19,-4.64 60.28,-4.64l53.33 0 57.97 9.67 11.59 5.02 18.55 5.03 16.22 105.5c-6.17,-9.28 -20.86,-17.01 -44.04,-23.19l-60.29 -9.27c-26.28,0 -44.05,0 -53.33,0l-51 14.3 -46.37 21.64 -34.78 28.98 384.89 264.33 13.91 -51.01 0 -568.07 -741.95 0 0 -95.06 1027.14 0 4.64 95.06 -166.94 0zm-570.77 411.17l-10.05 22.8 -5.03 16.23 -12.37 41.73 0 30.14c0,37.1 5.02,69.17 15.07,96.23 10.05,26.67 27.44,51.01 52.17,72.65 21.65,23.18 46.76,41.74 76.13,55.65 35.55,10.81 64.92,16.23 88.11,16.23l37.09 0 25.5 -9.28c12.37,-3.09 22.41,-6.18 30.14,-10.05 7.73,-3.86 18.17,-11.2 32.08,-22.03l23.19 -15.84 27.82 -25.11 -379.87 -269.35zm1761.56 -411.17l0 1099.03 -122.88 0 0 -686.31 -433.58 0 0 197.47 0 32.07c0,6.96 -0.79,11.98 -2.32,14.69 -1.55,2.7 -8.89,10.05 -22.03,22.41l-26.67 0c-9.27,0 -26.28,-10.05 -51.01,-29.76l-85.78 -90.03c-23.19,-25.89 -47.91,-59.9 -74.2,-101.25 -13.91,-23.18 -23.18,-43.65 -27.82,-62.21 0,-27.82 12.37,-51.39 37.1,-71.1l20.86 -7.34 27.83 0 637.62 0 0 -317.65 -860.21 0 0 -95.06 1173.22 0 0 95.06 -190.12 0zm525.36 0l0 1099.03 -122.89 0 0 -1099.03 -227.21 0 0 -95.06 575.01 0 0 95.06 -224.9 0zm-63.57 -95.06l-479.95 -498.5 81.15 -88.89 475.31 587.38 -76.51 0z"/>
  </g>
  <g id="_2873575458768">
   <path class="fil3" d="M1632.97 3406.31l0 688.49 1463.33 1333.26 233.09 0 0 -647.74 -1709.29 -1557.38c8.43,60.46 12.88,121.67 12.88,183.37z"/>
   <path class="fil0" d="M2758.76 2163.97c-733.86,142.44 -1089.81,-340.79 -1637.51,-561.87 -684.3,-276.23 -1121.25,-23.68 -1121.25,-23.68 1186.69,-71.03 1457.16,1114.84 1549.21,1363.3l1780.18 1621.95 0 -1157.36c0,-427.89 207.02,-794.59 565.94,-1070.53 516.4,-396.99 1061.65,-749.47 1061.65,-1344.87 0,0 -58.7,757.8 -2198.22,1173.06z"/>
   <polygon class="fil0" points="1632.97,4311.46 1632.97,5428.07 2858.5,5428.07 "/>
   <path class="fil0" d="M2481.18 0l-1392.81 631.15 703.78 176.42 0 401.01 59.36 0c-18.27,55.03 -28.2,113.38 -28.2,173.86 0,331.03 294.54,599.39 657.87,599.39 363.32,0 657.87,-268.36 657.87,-599.39 0,-60.48 -9.93,-118.82 -28.2,-173.86l59.36 0 0 -401.01 703.78 -176.42 -1392.81 -631.15z"/>
  </g>
 </g>
</svg>
